<?xml version="1.0" encoding="UTF-8"?>
<svg xmlns="http://www.w3.org/2000/svg" xmlns:xlink="http://www.w3.org/1999/xlink" width="2400" height="2400" viewBox="0 0 2400 2400">

<path fill-rule="evenodd" fill="rgb(81.639099%, 75.78125%, 68.554688%)" fill-opacity="1" d="M 330.613281 2114.882812 C 278.816406 2251.1875 368.613281 2230.882812 932.613281 2222.882812 C 1496.609375 2214.882812 1964.609375 2232.882812 1990.609375 2162.882812 C 2016.609375 2092.882812 1905.609375 2076.882812 1999.609375 2030.882812 C 2093.609375 1984.882812 2223.609375 1946.882812 2139.609375 1924.882812 C 2061.308594 1904.371094 1562.46875 1893.675781 724.75 1944.148438 C 557.5 1954.226562 382.40625 1978.578125 330.613281 2114.882812 "/>
<path fill-rule="evenodd" fill="rgb(12.939453%, 4.307556%, 0%)" fill-opacity="1" d="M 464.636719 1090.941406 L 520.835938 1095.25 L 538.300781 993.601562 L 640.984375 1011.058594 L 683.03125 909.53125 L 1690.039062 943.191406 L 1790.429688 987.398438 L 1835.789062 949.898438 L 1876.210938 988.128906 L 1933.800781 971.320312 L 1932.890625 996.75 L 1896.601562 1069.148438 L 1880.949219 1050.351562 L 1861.859375 1101.109375 L 1828.589844 1078.550781 L 1806.378906 1124.808594 L 1768.691406 1111.351562 L 1757.910156 1152.28125 L 1752.660156 1152.269531 L 1753.949219 1136.449219 C 1672.660156 1136.371094 1474.441406 1131.011719 1445.300781 1143.039062 L 1355.628906 1112.441406 L 1264.441406 1143.019531 L 1173.03125 1101.679688 L 1064.128906 1143.019531 L 986.335938 1097.921875 L 880.855469 1151.890625 L 804.679688 1088.039062 L 734.863281 1140.730469 L 680.441406 1142.710938 L 551.441406 1140.921875 L 477.605469 1110.460938 L 464.636719 1090.941406 "/>
<path fill-rule="nonzero" fill="rgb(23.925781%, 7.835388%, 0%)" fill-opacity="1" d="M 465.296875 1082.089844 L 513.464844 1085.78125 L 531.058594 983.371094 L 635.511719 1001.140625 L 677.199219 900.480469 C 1015.5 911.789062 1353.789062 923.261719 1692.101562 934.398438 L 1790.558594 977.769531 L 1834.039062 939.511719 L 1874.929688 978.191406 L 1943.621094 958.148438 L 1934.191406 1007.160156 L 1934.769531 993.011719 L 1904.730469 1052.929688 L 1916.671875 984.449219 L 1870.179688 998.011719 L 1830.238281 960.230469 L 1790.289062 997.03125 L 1687.988281 951.980469 L 688.863281 918.578125 L 646.457031 1020.980469 L 545.542969 1003.820312 L 528.210938 1104.710938 L 520.175781 1104.089844 L 482.074219 1101.171875 L 492.257812 1116.511719 L 465.238281 1105.359375 L 465.476562 1108.210938 L 447.203125 1080.699219 L 465.296875 1082.089844 "/>
<path fill-rule="evenodd" fill="rgb(23.925781%, 7.835388%, 0%)" fill-opacity="1" d="M 467 1166.019531 C 467 1166.019531 523.945312 1128.460938 662.1875 1106.339844 C 675.144531 1104.269531 693.535156 1101.871094 716.453125 1099.328125 L 717.1875 1100.121094 C 740.269531 1124.378906 766.324219 1147.039062 794.976562 1167.820312 L 485.457031 1167.820312 C 481.082031 1167.820312 476.855469 1168.5 472.878906 1169.738281 Z M 1651.671875 1167.820312 C 1668.308594 1151.671875 1683.390625 1134.21875 1696.730469 1115.53125 C 1746.511719 1126.960938 1790.421875 1141.171875 1825.839844 1158.75 C 1825.839844 1158.75 1822.300781 1162.140625 1816.269531 1167.820312 L 1651.671875 1167.820312 "/>
<path fill-rule="evenodd" fill="rgb(96.875%, 57.765198%, 14.299011%)" fill-opacity="1" d="M 1662.199219 1136.671875 C 1720.628906 1083.601562 1761.050781 1015.269531 1776.171875 933.609375 C 1795.75 827.839844 1769.75 716.578125 1709.699219 618.878906 C 1742.28125 552.921875 1778.578125 465.050781 1760.691406 430.699219 C 1742.460938 395.710938 1642.890625 410.839844 1542.238281 443.46875 C 1472.269531 394.941406 1389.828125 359.078125 1298.648438 342.210938 C 1203.800781 324.648438 1110.410156 329.648438 1024.988281 352.101562 C 940.71875 282.808594 849.019531 229.441406 818.636719 256.328125 C 787.550781 283.839844 792.585938 391.039062 800.414062 465.699219 C 717.574219 534.070312 659.546875 623.800781 641.089844 723.511719 C 610.933594 886.421875 693.785156 1035.878906 841.195312 1136.671875 L 1662.199219 1136.671875 "/>
<path fill-rule="evenodd" fill="rgb(92.819214%, 39.877319%, 9.747314%)" fill-opacity="1" d="M 915.832031 1136.75 L 1565.191406 1136.671875 C 1566.738281 1117.628906 1566.648438 1103.640625 1566.648438 1103.640625 C 1566.648438 1103.640625 1507.171875 1108.46875 1342.679688 1108.46875 C 1236.128906 1108.46875 1102.390625 1087.441406 1021.390625 1072.621094 C 1006 1069.808594 992.484375 1067.238281 980.34375 1065.410156 C 830.289062 1037.179688 700.019531 905.609375 690.179688 797.5 C 681.410156 701.128906 711.21875 590.589844 800.414062 465.699219 C 717.574219 534.070312 659.546875 623.800781 641.089844 723.511719 C 610.933594 886.421875 693.785156 1035.878906 841.195312 1136.671875 C 851.945312 1136.671875 882.46875 1137.449219 915.832031 1136.75 "/>
<path fill-rule="evenodd" fill="rgb(98.258972%, 74.794006%, 25%)" fill-opacity="1" d="M 1542.519531 443.378906 L 1542.238281 443.46875 C 1472.269531 394.941406 1389.828125 359.078125 1298.648438 342.210938 C 1203.800781 324.648438 1110.410156 329.648438 1024.988281 352.101562 C 953.671875 293.460938 877.035156 246.230469 836.746094 249.390625 C 831.460938 256.609375 828.25 261.011719 828.25 261.011719 C 828.25 261.011719 865.769531 261.519531 917.5625 300.179688 C 969.355469 338.839844 1020.289062 382.128906 1020.289062 382.128906 C 1020.289062 382.128906 1140.109375 333.011719 1286.988281 365.78125 C 1433.871094 398.539062 1520.820312 462.429688 1520.820312 462.429688 L 1540.710938 453.828125 Z M 1699.640625 1097.609375 C 1737.921875 1051.429688 1764.539062 996.460938 1776.171875 933.609375 C 1795.621094 828.511719 1770.078125 717.988281 1710.839844 620.75 L 1698.988281 619.378906 L 1689.121094 637.769531 C 1689.121094 637.769531 1814.558594 853.789062 1713.320312 1063.660156 C 1706.691406 1077.398438 1702.238281 1088.589844 1699.640625 1097.609375 "/>
<path fill-rule="nonzero" fill="rgb(23.925781%, 7.835388%, 0%)" fill-opacity="1" d="M 1648.03125 1136.671875 C 1709.21875 1083.96875 1751.550781 1014.988281 1766.929688 931.898438 C 1776.351562 881.011719 1774.96875 828.828125 1764.148438 777.589844 C 1752.960938 724.601562 1731.648438 672.511719 1701.699219 623.789062 L 1698.988281 619.378906 L 1701.28125 614.75 C 1717.378906 582.148438 1734.398438 544.148438 1745.160156 510.121094 C 1755.390625 477.761719 1759.988281 449.628906 1752.378906 435.03125 C 1745.910156 422.621094 1723.160156 418.609375 1691.449219 420.460938 C 1651.308594 422.808594 1598.429688 435.121094 1545.109375 452.398438 L 1540.710938 453.828125 L 1536.890625 451.179688 C 1501.761719 426.808594 1463.441406 405.691406 1422.421875 388.640625 C 1383 372.25 1341.03125 359.609375 1296.941406 351.449219 C 1251.050781 342.949219 1205.609375 339.800781 1161.378906 341.398438 C 1115.289062 343.070312 1070.328125 349.878906 1027.378906 361.171875 L 1022.730469 362.390625 L 1019.050781 359.359375 C 974.269531 322.550781 927.539062 290.351562 889.449219 272.671875 C 859.339844 258.699219 835.660156 253.769531 824.84375 263.339844 C 811.535156 275.109375 805.855469 306.441406 804.304688 343.730469 C 802.675781 382.789062 805.867188 427.78125 809.738281 464.730469 L 810.265625 469.730469 L 806.390625 472.921875 C 765.09375 507.011719 730.105469 546.449219 703.335938 589.769531 C 677.457031 631.648438 659.210938 677.238281 650.332031 725.21875 L 650.296875 725.21875 C 627.636719 847.640625 670.589844 962.429688 757.476562 1053.78125 C 786.402344 1084.191406 820.191406 1112.011719 858.046875 1136.671875 L 824.773438 1136.671875 C 794.898438 1115.28125 767.792969 1091.859375 743.882812 1066.730469 C 652.9375 971.109375 608.039062 850.628906 631.882812 721.808594 L 631.84375 721.800781 C 641.140625 671.601562 660.253906 623.851562 687.382812 579.949219 C 714.4375 536.171875 749.4375 496.28125 790.574219 461.679688 C 786.863281 424.96875 783.960938 381.269531 785.558594 342.941406 C 787.300781 301.078125 794.648438 265.050781 812.429688 249.320312 C 829.722656 234.011719 860.414062 238.558594 897.300781 255.679688 C 935.953125 273.621094 982.578125 305.441406 1027.25 341.828125 C 1070.03125 330.941406 1114.789062 324.351562 1160.738281 322.691406 C 1206.511719 321.03125 1253.320312 324.261719 1300.359375 332.960938 C 1345.660156 341.351562 1388.890625 354.378906 1429.589844 371.300781 C 1470.398438 388.261719 1508.609375 409.128906 1543.761719 433.128906 C 1596.949219 416.148438 1649.660156 404.121094 1690.359375 401.738281 C 1729.46875 399.460938 1758.558594 406.359375 1769 426.378906 C 1779.28125 446.128906 1774.671875 479.109375 1763.089844 515.75 C 1752.53125 549.128906 1736.179688 586.101562 1720.390625 618.398438 C 1750.011719 667.601562 1771.179688 720.160156 1782.488281 773.75 C 1793.828125 827.429688 1795.269531 882.070312 1785.410156 935.328125 C 1770.550781 1015.609375 1731.898438 1083.308594 1676.039062 1136.671875 L 1648.03125 1136.671875 "/>
<path fill-rule="evenodd" fill="rgb(92.819214%, 39.877319%, 9.747314%)" fill-opacity="1" d="M 847.347656 446.730469 C 847.347656 446.730469 936.84375 396.46875 959.609375 392.089844 C 982.378906 387.71875 938.582031 350.96875 897.765625 329.101562 C 856.945312 307.21875 836.640625 329.238281 847.347656 446.730469 "/>
<path fill-rule="evenodd" fill="rgb(92.819214%, 39.877319%, 9.747314%)" fill-opacity="1" d="M 1675.671875 584.179688 C 1675.671875 584.179688 1610.101562 505.21875 1590.398438 492.988281 C 1570.710938 480.75 1624.761719 462.109375 1670.699219 456.300781 C 1716.648438 450.488281 1727.730469 478.308594 1675.671875 584.179688 "/>
<path fill-rule="nonzero" fill="rgb(23.925781%, 7.835388%, 0%)" fill-opacity="1" d="M 844.265625 407.199219 C 844.257812 407.011719 837.855469 331.449219 860.359375 320.011719 C 871.234375 314.46875 886.890625 317.789062 904.339844 327.101562 C 931.144531 341.390625 958.410156 361.621094 968.742188 390.640625 C 919.804688 340.21875 874.832031 322.238281 862.191406 332.039062 C 848.8125 342.398438 848.183594 372.101562 844.265625 407.199219 "/>
<path fill-rule="nonzero" fill="rgb(23.925781%, 7.835388%, 0%)" fill-opacity="1" d="M 1692.21875 549.929688 C 1692.300781 549.75 1725.320312 481.488281 1708.410156 462.738281 C 1700.230469 453.679688 1684.429688 451.179688 1664.808594 453.621094 C 1634.648438 457.378906 1601.960938 466.5 1581.921875 489.910156 C 1645.671875 460.339844 1694.089844 459.648438 1702.390625 473.320312 C 1711.171875 487.78125 1701.128906 515.738281 1692.21875 549.929688 "/>
<path fill-rule="evenodd" fill="rgb(96.875%, 57.765198%, 14.299011%)" fill-opacity="1" d="M 861.109375 1145.96875 C 861.109375 1145.96875 862.378906 1066.761719 832.851562 991.421875 C 832.851562 991.421875 875.613281 996.511719 892.921875 942.539062 C 910.230469 888.578125 851.511719 779.261719 733.40625 797.578125 C 569.261719 823.050781 558.121094 1011.421875 602.734375 1147.078125 L 861.109375 1145.96875 "/>
<path fill-rule="evenodd" fill="rgb(92.819214%, 39.877319%, 9.747314%)" fill-opacity="1" d="M 654.945312 828.890625 C 567.0625 893.640625 566.710938 1037.53125 602.734375 1147.078125 L 642.792969 1146.910156 C 641.832031 1143.800781 640.839844 1140.648438 639.796875 1137.441406 C 570.632812 924.371094 651.882812 832.261719 654.945312 828.890625 "/>
<path fill-rule="evenodd" fill="rgb(98.258972%, 74.794006%, 25%)" fill-opacity="1" d="M 887.277344 956.53125 C 889.355469 952.371094 891.257812 947.730469 892.921875 942.539062 C 910 889.300781 853.0625 782.179688 738.101562 796.929688 C 736.027344 803.011719 734.839844 806.839844 734.839844 806.839844 C 793.386719 807.601562 839.996094 838.28125 864.960938 879.828125 C 879.71875 904.390625 887.03125 932.558594 887.277344 956.53125 "/>
<path fill-rule="evenodd" fill="rgb(92.819214%, 39.877319%, 9.747314%)" fill-opacity="1" d="M 846.515625 1034.03125 C 842.964844 1020.238281 838.546875 1006.039062 833.058594 991.960938 C 820.003906 985.511719 805.121094 980.101562 790.957031 979.371094 C 753.355469 977.410156 693.4375 984.460938 653.566406 929.410156 C 653.566406 929.410156 633.125 997.378906 691.871094 1009.519531 C 750.617188 1021.660156 737.300781 985.628906 751.398438 1002.078125 C 765.496094 1018.53125 813.503906 1051.96875 838.0625 1038.769531 C 841.125 1037.128906 843.9375 1035.539062 846.515625 1034.03125 "/>
<path fill-rule="nonzero" fill="rgb(23.925781%, 7.835388%, 0%)" fill-opacity="1" d="M 851.632812 1136.648438 C 850.980469 1114.039062 847.042969 1053.339844 824.109375 994.828125 L 818.511719 980.539062 L 833.765625 982.089844 C 833.867188 982.101562 869.039062 986.320312 884 939.679688 C 886.796875 930.960938 887.265625 920.378906 885.503906 909.019531 C 882.609375 890.371094 873.761719 869.941406 859.351562 852.089844 C 844.964844 834.261719 825.046875 819.128906 800.027344 811.101562 C 781.199219 805.058594 759.417969 803.03125 734.839844 806.839844 C 724 808.519531 713.789062 810.96875 704.195312 814.128906 C 652.824219 831.019531 621.335938 868.191406 604.726562 914.390625 C 587.742188 961.648438 586.082031 1018.378906 594.554688 1073 C 597.984375 1095.121094 603.109375 1116.941406 609.578125 1137.691406 Z M 846.019531 999.96875 C 871.632812 1073.171875 870.476562 1145.859375 870.472656 1146.078125 L 870.328125 1155.289062 L 595.945312 1156.46875 L 593.8125 1149.980469 C 586.109375 1126.550781 580.023438 1101.480469 576.050781 1075.859375 C 567.136719 1018.429688 568.992188 958.460938 587.101562 908.078125 C 605.589844 856.640625 640.800781 815.21875 698.394531 796.28125 C 708.761719 792.878906 719.949219 790.199219 731.976562 788.328125 C 759.648438 784.039062 784.316406 786.378906 805.753906 793.261719 C 834.554688 802.5 857.449219 819.878906 873.964844 840.339844 C 890.464844 860.78125 900.636719 884.421875 904.007812 906.160156 C 906.210938 920.371094 905.53125 933.910156 901.84375 945.410156 C 888.808594 986.050781 862.386719 997.121094 846.019531 999.96875 "/>
<path fill-rule="nonzero" fill="rgb(23.925781%, 7.835388%, 0%)" fill-opacity="1" d="M 843.230469 922.140625 C 843.351562 945.28125 836.65625 967.839844 815.464844 980.21875 C 804.640625 986.539062 791.558594 989.171875 777.621094 989.238281 C 762.335938 989.320312 745.953125 986.300781 730.527344 981.78125 L 735.742188 963.789062 C 749.640625 967.859375 764.226562 970.589844 777.546875 970.519531 C 788.296875 970.460938 803.65625 968.558594 811.476562 963.988281 C 817.914062 960.230469 834.261719 946.621094 843.230469 922.140625 "/>
<path fill-rule="nonzero" fill="rgb(23.925781%, 7.835388%, 0%)" fill-opacity="1" d="M 765.777344 917.730469 C 769.789062 944.039062 763.203125 962.179688 751.402344 972.859375 C 744.96875 978.671875 737.140625 982.160156 728.699219 983.460938 L 728.660156 983.460938 C 720.621094 984.699219 711.949219 983.941406 703.386719 981.320312 C 682.246094 974.859375 661.65625 956.769531 653.566406 929.410156 L 652.757812 911.589844 C 658.90625 932.398438 693.09375 958.589844 708.820312 963.410156 C 714.632812 965.191406 720.472656 965.710938 725.835938 964.890625 C 752.089844 960.808594 756.738281 936.859375 765.777344 917.730469 "/>
<path fill-rule="nonzero" fill="rgb(23.925781%, 7.835388%, 0%)" fill-opacity="1" d="M 832.847656 1000.820312 C 832.792969 1000.820312 813.1875 1001.070312 794.371094 983.339844 L 807.21875 969.679688 C 820.503906 982.199219 832.8125 982.019531 832.847656 982.019531 L 832.847656 1000.820312 "/>
<path fill-rule="evenodd" fill="rgb(99.609375%, 81.639099%, 58.396912%)" fill-opacity="1" d="M 465.238281 1105.359375 L 551.441406 1140.921875 L 680.441406 1142.710938 L 734.863281 1140.730469 L 804.679688 1088.039062 L 880.855469 1151.890625 L 986.335938 1097.921875 L 1064.128906 1143.019531 L 1173.039062 1101.679688 L 1264.441406 1143.019531 L 1355.628906 1112.441406 L 1445.300781 1143.039062 C 1474.441406 1131.011719 1672.660156 1136.371094 1753.949219 1136.449219 L 1691.320312 1904.855469 L 1749.660156 2147.363281 L 477.777344 2151.121094 L 531.699219 1908.601562 L 465.238281 1105.359375 "/>
<path fill-rule="evenodd" fill="rgb(83.242798%, 66.252136%, 47.280884%)" fill-opacity="1" d="M 1722.628906 2147.441406 L 477.777344 2151.121094 L 531.699219 1908.601562 L 475.164062 1109.769531 C 533.019531 1139.441406 576.808594 1162.070312 576.808594 1162.070312 C 576.808594 1162.070312 682.402344 1767.601562 678.515625 1880.394531 C 674.628906 1993.1875 501.539062 2075.898438 773.8125 2079.65625 C 1046.078125 2083.417969 1576.03125 2038.738281 1629.511719 2051.460938 C 1682.988281 2064.179688 1720.78125 2145.535156 1722.628906 2147.441406 "/>
<path fill-rule="evenodd" fill="rgb(98.046875%, 64.256287%, 40.380859%)" fill-opacity="1" d="M 1748.828125 1152.261719 L 1757.910156 1152.28125 L 1768.691406 1111.351562 L 1806.378906 1124.808594 L 1828.589844 1078.550781 L 1861.859375 1101.109375 L 1880.949219 1050.351562 L 1896.601562 1069.148438 L 1934.769531 993.011719 L 1901.761719 1796.652344 L 1940.640625 1967.730469 L 1748.828125 2148.195312 L 1701.671875 1905.6875 L 1748.828125 1152.261719 "/>
<path fill-rule="evenodd" fill="rgb(79.6875%, 52.146912%, 32.93457%)" fill-opacity="1" d="M 1883.898438 1053.898438 L 1896.601562 1069.148438 L 1934.769531 993.011719 L 1901.761719 1796.652344 L 1938.679688 1959.121094 C 1938.679688 1959.121094 1898.511719 1832.816406 1873.351562 1815.898438 C 1858.011719 1805.582031 1839.308594 1806.609375 1827.050781 1808.980469 L 1827.050781 1804.835938 C 1842.300781 1792.472656 1865.488281 1761.855469 1865.488281 1689.945312 C 1865.488281 1582.792969 1901.648438 1227.488281 1892.21875 1137.261719 C 1888.558594 1102.261719 1885.851562 1074.628906 1883.898438 1053.898438 "/>
<path fill-rule="evenodd" fill="rgb(79.6875%, 52.146912%, 32.93457%)" fill-opacity="1" d="M 1748.828125 1152.261719 L 1757.910156 1152.28125 L 1768.691406 1111.351562 L 1806.378906 1124.808594 L 1809.660156 1117.980469 C 1799.429688 1169.25 1771.328125 1338.421875 1812.039062 1338.410156 C 1827.78125 1338.410156 1782.449219 1330.929688 1765.511719 1425.035156 C 1738.648438 1574.332031 1730.800781 1856.710938 1753.871094 1900.492188 C 1791.480469 1971.875 1828.800781 1915.421875 1825.390625 1905.21875 C 1824.828125 1903.535156 1825.519531 1904.046875 1827.050781 1906.398438 L 1827.050781 2074.601562 L 1748.828125 2148.195312 L 1701.671875 1905.6875 Z M 1827.050781 1804.835938 L 1827.050781 1808.980469 C 1819.210938 1810.5 1814 1812.570312 1814 1812.570312 C 1814 1812.570312 1819.570312 1810.894531 1827.050781 1804.835938 "/>
<path fill-rule="evenodd" fill="rgb(79.6875%, 52.146912%, 32.93457%)" fill-opacity="1" d="M 1952.800781 1967.730469 L 1760.988281 2148.195312 L 1833.308594 1892.539062 Z M 1952.800781 1967.730469 "/>
<path fill-rule="nonzero" fill="rgb(23.925781%, 7.835388%, 0%)" fill-opacity="1" d="M 1945.21875 1974.703125 L 1748.828125 2148.195312 C 1742.46875 2115.492188 1789.230469 1977.78125 1816.910156 1879.855469 L 1942.410156 1961.550781 Z M 1763.851562 2122.78125 L 1927.070312 1969.203125 L 1825.390625 1905.21875 Z M 1763.851562 2122.78125 "/>
<path fill-rule="nonzero" fill="rgb(23.925781%, 7.835388%, 0%)" fill-opacity="1" d="M 1748.828125 1143.421875 L 1752.460938 1143.421875 L 1763.808594 1100.359375 L 1802.871094 1114.300781 L 1825.820312 1066.488281 L 1858.441406 1088.609375 L 1878.601562 1034.988281 L 1895.140625 1054.839844 L 1943.621094 958.148438 L 1909.21875 1795.609375 L 1949.089844 1971.0625 L 1760.878906 2156.175781 L 1742.109375 2152.765625 C 1725.429688 2066.953125 1710.910156 1992.148438 1694.191406 1906.347656 C 1710.238281 1652.046875 1726.050781 1397.71875 1741.949219 1143.398438 Z M 1757.910156 1161.121094 L 1755.71875 1161.121094 L 1709.148438 1905.03125 L 1753.410156 2132.605469 L 1932.191406 1964.394531 L 1894.300781 1797.691406 L 1925.921875 1027.878906 L 1898.058594 1083.449219 L 1883.289062 1065.710938 L 1865.28125 1113.601562 L 1831.359375 1090.609375 L 1809.890625 1135.308594 L 1773.570312 1122.351562 L 1763.351562 1161.128906 L 1757.910156 1161.121094 "/>
<path fill-rule="nonzero" fill="rgb(23.925781%, 7.835388%, 0%)" fill-opacity="1" d="M 1814.03125 1893.507812 L 1799.648438 1732.699219 L 1850.628906 1097.449219 L 1864.871094 1099.179688 L 1814.058594 1732.496094 L 1828.269531 1891.566406 L 1814.03125 1893.507812 "/>
<path fill-rule="evenodd" fill="rgb(71.679688%, 47.068787%, 29.80957%)" fill-opacity="1" d="M 1041.128906 1731.34375 C 1035.539062 1709.457031 1039.699219 1692.550781 1057.609375 1684.355469 C 1077.558594 1675.226562 1096.71875 1690.421875 1108.800781 1699.570312 C 1111.460938 1697.378906 1112.078125 1695.933594 1115.460938 1693.714844 C 1117.851562 1692.144531 1119.960938 1690.644531 1122.488281 1688.992188 C 1157.011719 1666.480469 1189.328125 1696.125 1177.589844 1729.367188 C 1173.851562 1739.9375 1160.839844 1757.402344 1153.789062 1762.796875 C 1145.550781 1769.109375 1145.359375 1771.789062 1135.140625 1779.105469 C 1117.878906 1791.476562 1111.878906 1800.121094 1087.710938 1781.207031 C 1085.140625 1779.195312 1083.238281 1778.320312 1080.648438 1776.429688 L 1050.359375 1747.828125 C 1049.929688 1744.855469 1050.390625 1746.78125 1048.269531 1743.554688 C 1047.539062 1742.449219 1046.519531 1740.839844 1045.660156 1739.410156 C 1044.378906 1737.285156 1042.460938 1732.996094 1041.128906 1731.34375 Z M 1341.359375 1631.078125 C 1400.21875 1597.808594 1383.238281 1484.136719 1314.371094 1515.878906 C 1301.429688 1521.839844 1291.109375 1531.066406 1282.671875 1540.835938 C 1274.578125 1550.195312 1267 1562.1875 1264.359375 1577.105469 C 1256.910156 1619.125 1294.210938 1657.726562 1341.359375 1631.078125 Z M 1225.910156 1861.421875 C 1237.148438 1867.683594 1250.289062 1870.613281 1265.820312 1868.378906 C 1358.308594 1855.035156 1326.308594 1751.285156 1285.039062 1701.515625 C 1277.910156 1692.914062 1270.601562 1684.675781 1263.480469 1677.332031 L 1233.140625 1649.980469 C 1221.960938 1640.785156 1195.460938 1624.441406 1182.988281 1619.175781 C 1127.660156 1595.816406 1084.410156 1595.339844 1030.910156 1620.722656 C 1017.601562 1627.039062 992.320312 1643.503906 981.585938 1652.964844 C 963.601562 1668.816406 948.054688 1684.507812 932.257812 1704.953125 C 908.894531 1735.195312 878.035156 1788.054688 903.296875 1834.21875 C 913.074219 1852.082031 931.066406 1867.742188 959.144531 1871.035156 C 993.859375 1875.113281 1004.320312 1854.445312 1027.761719 1846.722656 C 1053.089844 1838.378906 1073.921875 1860.9375 1096.058594 1868.644531 C 1122.039062 1877.679688 1139.78125 1853.507812 1170.949219 1849.15625 C 1185.398438 1847.144531 1206.78125 1850.765625 1225.910156 1861.421875 Z M 960.925781 1471.378906 C 958.285156 1500.671875 964.808594 1516.761719 980.910156 1535.449219 C 982.769531 1538.128906 981.878906 1536.382812 984.15625 1538.234375 C 989.285156 1542.394531 986.039062 1540.738281 994.609375 1545.578125 C 1013.261719 1556.113281 1035.28125 1553.683594 1051.171875 1542.824219 C 1101.851562 1508.1875 1076.730469 1424.269531 1034.820312 1405.609375 C 1029.390625 1403.191406 1022.558594 1401.59375 1014.660156 1402.367188 C 982.441406 1405.542969 963.890625 1447.203125 960.925781 1471.378906 Z M 853.421875 1520.730469 C 814.273438 1552.933594 840.546875 1641.824219 901.953125 1642.652344 C 948.589844 1643.277344 965.402344 1589.886719 934.773438 1550.601562 C 931.316406 1546.167969 926.101562 1539.695312 922.238281 1536.847656 L 908.496094 1525.871094 C 889.101562 1516.199219 876.449219 1507.753906 853.421875 1520.730469 Z M 1229.46875 1534.378906 C 1235.890625 1527.9375 1240.421875 1519.894531 1244.859375 1509.734375 C 1255.640625 1474.882812 1244.070312 1440.820312 1223.160156 1417.988281 C 1204.800781 1397.929688 1178.410156 1393.960938 1157.570312 1413.992188 C 1155.441406 1416.03125 1152.589844 1419.59375 1150.351562 1422.195312 C 1147.789062 1425.164062 1146.25 1427.550781 1144.191406 1431.324219 C 1127.78125 1461.394531 1122.410156 1494.914062 1143.671875 1525.476562 C 1150.980469 1535.988281 1163.671875 1547.886719 1182.898438 1550.359375 C 1193.371094 1551.703125 1202.410156 1550.320312 1211.230469 1546.773438 C 1223.179688 1541.972656 1225.890625 1536.53125 1229.46875 1534.378906 "/>
<path fill-rule="evenodd" fill="rgb(99.609375%, 97.264099%, 82.8125%)" fill-opacity="1" d="M 1713.269531 1198.121094 C 1702.578125 1312.578125 1692.320312 1433.144531 1672.890625 1546.121094 C 1655.621094 1646.519531 1645.089844 1918.773438 1645.089844 1918.773438 L 1706.871094 2062.609375 L 1669.320312 1904.15625 C 1669.320312 1904.15625 1684.910156 1633.691406 1701.519531 1507.492188 C 1706.988281 1465.855469 1719.320312 1240.859375 1713.269531 1198.121094 Z M 1251.230469 1212.039062 L 1348.46875 1175.78125 L 1415.570312 1200.261719 L 1488.980469 1198.441406 L 1422.371094 1219.289062 L 1351.390625 1194.820312 Z M 600.058594 1200.570312 L 645.679688 1183.050781 L 722.253906 1189.378906 L 795.179688 1150.390625 L 885.613281 1204.789062 L 984.054688 1159.550781 L 1072.308594 1212.039062 L 991.605469 1183.03125 L 875.890625 1228.359375 L 792.25 1175.988281 L 708.636719 1202.96875 L 643.765625 1201.078125 L 600.058594 1200.570312 "/>
<path fill-rule="nonzero" fill="rgb(23.925781%, 7.835388%, 0%)" fill-opacity="1" d="M 468.605469 1097.179688 L 553.269531 1132.101562 L 680.242188 1133.859375 L 731.726562 1131.988281 L 804.96875 1076.710938 L 882.0625 1141.328125 L 986.617188 1087.839844 L 1064.921875 1133.238281 L 1173.339844 1092.089844 L 1264.941406 1133.511719 L 1355.671875 1103.089844 L 1445.378906 1133.699219 C 1477.058594 1124.71875 1601.691406 1126.101562 1691.929688 1127.089844 C 1715.890625 1127.351562 1737.410156 1127.589844 1753.949219 1127.609375 L 1763.570312 1127.621094 L 1700.269531 1904.253906 L 1760.878906 2156.175781 C 1329.5 2157.472656 898.121094 2158.75 466.742188 2160 L 522.753906 1908.089844 L 455.199219 1091.640625 Z M 548.078125 1149.109375 L 475.28125 1119.078125 L 535.261719 1843.984375 L 573.015625 1795.171875 L 540.648438 1909.113281 L 488.8125 2142.246094 L 1738.449219 2138.550781 L 1682.371094 1905.457031 L 1744.328125 1145.269531 C 1729.308594 1145.191406 1711.359375 1144.988281 1691.789062 1144.78125 C 1599.339844 1143.761719 1470.210938 1142.339844 1448.671875 1151.230469 L 1445.578125 1152.511719 L 1355.578125 1121.789062 L 1263.941406 1152.519531 L 1172.730469 1111.28125 L 1063.328125 1152.800781 L 986.054688 1108 L 879.644531 1162.441406 L 804.390625 1099.371094 L 737.996094 1149.480469 C 673.976562 1151.808594 614.113281 1150.671875 549.617188 1149.738281 L 548.078125 1149.109375 "/>
<path fill-rule="evenodd" fill="rgb(96.875%, 57.765198%, 14.299011%)" fill-opacity="1" d="M 1486.539062 1157.25 C 1480.878906 1157.601562 1446.519531 1157.71875 1431.878906 1112.070312 C 1415.898438 1062.261719 1470.109375 961.328125 1579.140625 978.25 C 1667.980469 992.039062 1708.25 1057.511719 1718.078125 1134.558594 L 1666.808594 1134.710938 L 1623.570312 1134.828125 L 1616.539062 1134.160156 C 1616.539062 1134.160156 1597.96875 1143.949219 1587.660156 1141.601562 C 1577.339844 1139.25 1577.339844 1139.25 1577.339844 1139.25 C 1577.339844 1139.25 1560.53125 1148.820312 1538.269531 1146.539062 C 1516.019531 1144.269531 1516.019531 1144.269531 1516.019531 1144.269531 C 1516.019531 1144.269531 1497.421875 1157.691406 1487.339844 1157.191406 C 1487.109375 1157.179688 1486.828125 1157.210938 1486.539062 1157.25 "/>
<path fill-rule="evenodd" fill="rgb(98.258972%, 74.794006%, 25%)" fill-opacity="1" d="M 1494.800781 991.050781 C 1517.46875 978.960938 1545.71875 973.070312 1579.140625 978.25 C 1667.980469 992.039062 1708.25 1057.511719 1718.078125 1134.558594 L 1702.878906 1134.609375 C 1697.011719 1108.949219 1684.109375 1060.210938 1642.679688 1022.980469 C 1588.628906 974.410156 1495.03125 1001.640625 1495.03125 1001.640625 L 1494.800781 991.050781 "/>
<path fill-rule="nonzero" fill="rgb(23.925781%, 7.835388%, 0%)" fill-opacity="1" d="M 1487.089844 1166.621094 C 1482.730469 1166.878906 1464.191406 1167.050781 1447.050781 1152.878906 C 1437.761719 1145.199219 1428.851562 1133.308594 1422.960938 1114.941406 C 1419.519531 1104.210938 1418.878906 1091.609375 1420.941406 1078.371094 C 1424.058594 1058.191406 1433.511719 1036.238281 1448.820312 1017.269531 C 1464.148438 998.28125 1485.398438 982.148438 1512.128906 973.570312 C 1532.019531 967.191406 1554.898438 965.019531 1580.570312 969 C 1624.449219 975.808594 1657.191406 994.628906 1680.71875 1021.101562 C 1707.320312 1051.019531 1721.898438 1090.550781 1727.371094 1133.390625 L 1728.710938 1143.898438 C 1693.511719 1143.988281 1658.300781 1144.058594 1623.101562 1144.191406 L 1618.550781 1143.761719 C 1614.789062 1145.769531 1610.941406 1147.371094 1607.058594 1148.558594 C 1603.878906 1149.53125 1600.691406 1150.230469 1597.519531 1150.640625 C 1593.738281 1151.300781 1589.960938 1151.519531 1586.601562 1150.941406 C 1585.511719 1150.851562 1584.441406 1150.71875 1583.371094 1150.558594 C 1582.011719 1150.351562 1580.660156 1150.078125 1579.339844 1149.75 C 1577.050781 1150.390625 1574.730469 1150.988281 1572.410156 1151.539062 C 1564.460938 1154.328125 1552.050781 1157.308594 1537.640625 1155.898438 C 1531.941406 1155.828125 1526.398438 1155.300781 1521.121094 1154.210938 L 1518.460938 1153.941406 C 1512.21875 1158.019531 1497.878906 1166.601562 1487.699219 1166.570312 Z M 1553.800781 1076.570312 C 1551.128906 1094.121094 1567.96875 1120.710938 1574.601562 1126.710938 C 1576.269531 1128.21875 1578.179688 1129.421875 1580.269531 1130.308594 L 1588.878906 1132.269531 C 1592.160156 1132.46875 1595.601562 1132.148438 1599.058594 1131.339844 C 1605.371094 1129.429688 1611.730469 1126.109375 1612.109375 1125.910156 L 1612.121094 1125.910156 L 1612.128906 1125.898438 C 1622.390625 1119.660156 1631.339844 1109.101562 1635.539062 1094.859375 L 1653.53125 1100.148438 C 1650.660156 1109.871094 1646.089844 1118.328125 1640.449219 1125.421875 L 1707.238281 1125.230469 C 1701.328125 1090.089844 1688.460938 1058.070312 1666.699219 1033.589844 C 1645.929688 1010.21875 1616.851562 993.578125 1577.699219 987.5 C 1555.128906 984 1535.140625 985.878906 1517.859375 991.421875 C 1494.898438 998.78125 1476.628906 1012.660156 1463.429688 1029.019531 C 1450.210938 1045.398438 1442.089844 1064.140625 1439.441406 1081.230469 C 1437.828125 1091.621094 1438.25 1101.269531 1440.800781 1109.210938 C 1445.421875 1123.621094 1452.121094 1132.710938 1459.019531 1138.421875 C 1470.320312 1147.75 1482.078125 1148.058594 1485.578125 1147.910156 L 1486.230469 1147.839844 L 1486.230469 1147.871094 C 1486.78125 1147.820312 1487.289062 1147.808594 1487.738281 1147.828125 L 1487.78125 1147.828125 C 1490.421875 1147.960938 1494.371094 1146.351562 1498.25 1144.320312 C 1476.53125 1128.078125 1472.050781 1101.808594 1485.179688 1079.210938 C 1485.050781 1102.460938 1493.121094 1119.929688 1512.488281 1131.25 C 1515.941406 1133.261719 1519.839844 1134.710938 1524.050781 1135.671875 L 1538.878906 1137.179688 C 1544.828125 1137.179688 1551.050781 1136.570312 1557.339844 1135.519531 C 1549.320312 1125.230469 1545.371094 1109.871094 1548.539062 1089.058594 L 1553.800781 1076.570312 "/>
<path fill-rule="nonzero" fill="rgb(23.925781%, 7.835388%, 0%)" fill-opacity="1" d="M 1208.261719 742.449219 C 1211.179688 742.03125 1262.210938 749.191406 1270.511719 768.671875 C 1278.808594 788.148438 1259.601562 814.269531 1223.980469 814.480469 C 1222 814.488281 1220.050781 814.398438 1218.121094 814.21875 C 1217.328125 827.550781 1214.179688 846.011719 1204.71875 866.46875 C 1207.699219 876.230469 1223.078125 917.589844 1268.820312 914.761719 C 1321.5 911.5 1326.078125 896.21875 1326.101562 896.179688 L 1337.988281 900 C 1337.96875 900.058594 1330.828125 923.449219 1269.550781 927.238281 C 1250.820312 928.398438 1236.351562 923.460938 1225.261719 915.980469 C 1216.539062 919.96875 1199.828125 925.519531 1179.269531 922.160156 C 1157.210938 918.558594 1147.710938 906.21875 1144.140625 899.640625 C 1077.828125 912.359375 1046.820312 840.96875 1046.710938 840.710938 L 1058.109375 835.621094 C 1058.238281 835.898438 1100.351562 932.941406 1193.101562 861.839844 C 1202.5 841.761719 1205.25 823.960938 1205.78125 811.761719 C 1169.921875 800.671875 1149.679688 758.851562 1176.109375 746.859375 C 1182.691406 743.871094 1192.839844 742.109375 1208.261719 742.449219 "/>
<path fill-rule="evenodd" fill="rgb(100%, 100%, 100%)" fill-opacity="1" d="M 1219.171875 752.398438 C 1219.171875 752.398438 1192.429688 747.210938 1181.410156 752.851562 C 1170.398438 758.488281 1172.550781 773.328125 1173.941406 775.511719 C 1175.328125 777.699219 1177.171875 757.601562 1185.621094 756.53125 C 1194.070312 755.460938 1219.171875 752.398438 1219.171875 752.398438 "/>
<path fill-rule="evenodd" fill="rgb(100%, 100%, 100%)" fill-opacity="1" d="M 1304.289062 679.648438 C 1304.289062 679.648438 1285.46875 771.75 1384.398438 792.441406 C 1483.328125 813.121094 1541.878906 735.53125 1541.878906 735.53125 C 1541.878906 735.53125 1470.578125 681.71875 1304.289062 679.648438 "/>
<path fill-rule="nonzero" fill="rgb(23.925781%, 7.835388%, 0%)" fill-opacity="1" d="M 1308.300781 684.398438 C 1306.140625 701.550781 1302.789062 770.589844 1385.351562 787.851562 C 1468.289062 805.191406 1521.828125 751.589844 1534.980469 736.519531 C 1517.988281 725.679688 1447.640625 686.871094 1308.300781 684.398438 Z M 1383.441406 797.03125 C 1279.941406 775.390625 1299.628906 679.039062 1299.679688 678.769531 L 1300.429688 674.910156 L 1304.339844 674.960938 C 1472.179688 677.058594 1544.449219 731.589844 1544.660156 731.75 L 1548.519531 734.589844 L 1545.609375 738.371094 C 1545.441406 738.601562 1485.28125 818.320312 1383.441406 797.03125 "/>
<path fill-rule="evenodd" fill="rgb(23.925781%, 7.835388%, 0%)" fill-opacity="1" d="M 1304.289062 679.648438 C 1304.289062 679.648438 1287.578125 761.511719 1368.578125 788.210938 C 1396.421875 761.460938 1402.28125 721.488281 1400.949219 687.480469 C 1373.210938 683.101562 1341.070312 680.101562 1304.289062 679.648438 "/>
<path fill-rule="evenodd" fill="rgb(100%, 100%, 100%)" fill-opacity="1" d="M 1169.679688 654.761719 C 1169.679688 654.761719 1154.328125 747.511719 1054.539062 731.441406 C 954.753906 715.378906 927.816406 621.980469 927.816406 621.980469 C 927.816406 621.980469 1013.640625 597.230469 1169.679688 654.761719 "/>
<path fill-rule="nonzero" fill="rgb(23.925781%, 7.835388%, 0%)" fill-opacity="1" d="M 1174.289062 655.578125 C 1174.238281 655.859375 1158.171875 752.871094 1053.808594 736.070312 C 951.066406 719.539062 923.398438 623.601562 923.316406 623.320312 L 921.953125 618.738281 L 926.566406 617.46875 C 926.816406 617.398438 1013.851562 592.300781 1171.300781 650.351562 L 1174.988281 651.710938 Z M 1055.269531 726.820312 C 1138.550781 740.21875 1160.121094 674.589844 1164.25 657.78125 C 1033.199219 610.238281 953.640625 621.328125 933.914062 625.371094 C 940.820312 644.171875 971.65625 713.359375 1055.269531 726.820312 "/>
<path fill-rule="evenodd" fill="rgb(23.925781%, 7.835388%, 0%)" fill-opacity="1" d="M 1035.199219 727.140625 C 951.230469 703.109375 927.816406 621.980469 927.816406 621.980469 C 927.816406 621.980469 969.546875 609.960938 1047.691406 622.171875 C 1052.03125 652.03125 1053.21875 693.96875 1035.199219 727.140625 "/>
</svg>
